<svg xmlns="http://www.w3.org/2000/svg" width="1920.001" height="3480.314" viewBox="0 0 1920.001 3480.314">
  <g id="FORMES_TRANS." data-name="FORMES + TRANS." transform="translate(-220.577 -319.727)">
    <g id="forme_11" transform="translate(2140.578 3800.041) rotate(180)">
      <path id="Tracé_23" data-name="Tracé 23" d="M669.2,99.756c-47.74-4.886-94.461-11.027-142.223-15.474C454.64,77.546,383.6,72.018,317.038,96.6c-25.32,9.354-44.55,24.072-71.618,31.423-39.3,10.675-85.471,10.759-126.767,15.492C67.208,149.407-34.159,153.342,11.534,205.7c15.172,17.383,77.419,27.579,103.586,24.711,26.291-2.878,45.708-18.174,69.71-25.633,60.676-18.853,130.5-13.365,193.893-6.842,132.37,13.619,253.2,38.871,391.131,34.283,67.672-2.254,114.812-33.619,183.053-32.78,88.763,1.093,171.215,36.348,134.509,101.988-17.37,31.06-39.4,27.6-83.284,27.582-32.364-.014-72.079-3.949-102.53,5.2-42.642,12.806-48.373,46.813-54.929,75.055-7.4,31.891-10.749,59.93-14.936,91.89-3.141,23.934-30.847,48.362,6.792,64.3,43.848,18.562,117.648,18.675,167.168,21.448,61.287,3.434,124.789,6.065,186.13,2.272,17.1-1.056,41.3-6.6,58.591-2.9,30.686,6.577,31.908,17.1,71.237,16.127,54.452-1.35,191.508-17.111,203.1-66.177,4.637-19.608-29.545-41.905-56.918-46.7-43.349-7.6-61.823,12.523-65.5-30.929-2.166-25.6,5.774-61.03,12.893-86.249,17.943-63.553,161.153-.247,218.028-6.955,31.186-3.677,55.857-28.366,50.946-48.555-4.61-18.969-33.024-27.807-14.78-43.673,24.172-21.031,61.77-18.12,82.351-46.2,19.691-26.867,14-44.206-24.425-62.439-49.2-23.343-121.76-30.624-179.086-35.491-60.987-5.176-120.527-13.582-182.12-13.909-41.913-.218-118.3,6.381-156.575-9.165-28.832-11.713-50.565-45.292-77.547-61.967C1104.29,26.846,1059.376-3.992,1015.49.429,977.057,4.3,951,29.2,913.1,32.94c-67.951,6.7-139.912-16.446-208-12.526-44.475,2.559-24.886,19.985-1.3,32.642C728.31,66.214,704.1,103.328,669.2,99.756Z" transform="translate(0 0)" fill="#5cb268"/>
    </g>
    <g id="forme_10" transform="translate(1413.885 2287.45)">
      <path id="Tracé_18" data-name="Tracé 18" d="M510.7,190.486a505.169,505.169,0,0,0,107.332,29.921c34.516,5.523,53.013,3.968,74,18.64,20.649,14.431,34.776,37.668,47.574,71.164,28.5,74.6,112.228,89.272,132.276,174.486,19.4,82.46-79.971,67.6-104.258,129.751-11.063,28.308-11.037,59.589-11,89.676.054,47.614-13.266,88.67-39.64,128.16-51.172,76.624-144.669,54.727-185.574-22.334-20.228-38.1-29.136-64.42-72.093-80.124-22.481-8.216-37.188-12.583-58.092-4.308-36.222,14.339-56.344,11.779-98.468,7.264-64.679-6.929-130.093-11.934-149.266-90.049-10.506-42.81-6.309-111.648,9-152.629,9.273-24.816,21-21.246,39.2-37.056,32.142-27.922,43.81-79.737,42.107-120.575-2.124-50.912-4.856-129,40.3-165,20.839-16.617,59.912-17.341,84.482-21.868,25.192-4.641,39.139-1.212,44.229-.474,28.331,4.1,49.61,16.175,62.2,24.848Z" transform="translate(-147.692 -143.217)" fill="#fff"/>
      <path id="Tracé_17" data-name="Tracé 17" d="M302.553,267.564c22.254-29.489,60.262-41.865,94.353-31.15,40.337,12.68,57.59,54.02,58.914,85.59,3,71.73-112.092,87.8-147.227,39.067-8.707-12.075-23-28.8-22.382-51.623C286.8,287.848,298.188,272.788,302.553,267.564Z" transform="translate(34.208 -15.509)" fill="#f2cd00"/>
    </g>
    <g id="forme_9" transform="translate(220.577 1793.673)">
      <path id="Tracé_22" data-name="Tracé 22" d="M176.977,52.587c-2.872-3.713-5.645-7.676-8.454-11.624-1.839-2.584-4.679-9.217-7.262-10.474-2.767-1.346-4.39.589-7.359,1.255-7.2,1.615-13.377,5.336-20.293,7.443-6.176,1.881-12.55,1.383-19.008,1.406-12.477.042-25.978,3.165-35.7,11.272-9.232,7.694-8.232,27.256-8.47,38.12l8.467,4.233c-8.46-2-21.186-6.957-24.71,1.981-4.342,11.007,2.977,31.226,7.756,41.127A45.67,45.67,0,0,0,78.37,156.495c7.253,4.929,19.908,9.4,23.645,17.971,6.4,14.685-23.2,36.978-3.385,47.42,9.512,5.012,23.421,5.955,33.9,7.108,14.957,1.643,30.8,4.688,45.71,5.5,10.139.554,5.32-6.194,8.616-13.97l-22.58-4.233c22.442,5.652,48.539,8.484,71.577,9.788,7.746.438,16.712,1.18,24.11-1.777,9.2-3.676,18.822-12.394,17.788-22.334-1.027-9.876-6.653-23.661-12.209-32.309-4.208-6.55-12.308-9.02-15.833-15.361-3.475-6.253-2.185-17.978-2.168-24.649.019-7.3,1.592-23.769-5.65-29.169-3.992-2.978-12.722-1.327-17.636-1.325l.706,12c.008-15.614-3.268-41.414-19.129-49.056-10.247-4.937-30.579-7.324-42.262-6.687-11.254.614-22.066,3.912-33.165,5.642" transform="translate(1336.142 1371.977)" fill="#ef838e"/>
    </g>
    <g id="forme_7" transform="translate(789.828 1946.033)">
      <path id="Tracé_16" data-name="Tracé 16" d="M1029.713,508.685c46.1-14.12,56.735-27.008,62.018-36.213,7.752-13.468,8.355-31.386,3.173-57.64-9.432-47.753-23.487-127.4-68.938-155.668-31.87-19.8-88.3-1.827-123.548,1.7,3.891,1.769-8.829-83.1-58.932-99.9-47.375-15.889-116.22-25.711-172-14.569-24.9,2.913-69.768,32.689-132.168,48.024-73.821,13.016-116.769,54.406-116.769,54.406C339.338,298.977,286.7,480.938,301.89,559.279c6.69,34.5,32.014,120.325,64.315,131.937,25.152,9.031,42.164-15.425,82.935-12.424,32.444,2.378,57.941,19.165,74.666,33.328,51.639,43.708,99.574,60.626,129.448,68.034C784.368,812.7,864.59,752.509,985.065,700.262c39.565-17.15,42.982-23.2,32.9-62.206-6.69-25.862-20.156-61.757-30.348-119.078" transform="translate(-297.885 -143.95)" fill="#00a5fc" opacity="0.995"/>
    </g>
    <g id="forme_5" transform="matrix(0.914, 0.407, -0.407, 0.914, 349.117, 731.89)">
      <path id="Tracé_29" data-name="Tracé 29" d="M151.72,6.52c-29.5,10.006-48.2,25.729-85.711,59.567C26,102.187,5.93,120.429,2.994,129.836c-8.383,26.861,1.768,51.192,18.892,92.238C38.64,262.23,48.193,285.13,72.507,300.029c13.017,7.977,38.828,10.22,90.451,14.7,19.491,1.693,34.944,1.422,65.853.881,21.4-.375,36.4-1.292,50.82-10.945,8.278-5.54,13.437-12,17.583-17.858,20.933-29.581,32.4-67.006,42.333-120.972,6.014-32.679,8.973-49.181,6.671-57.2-4.122-14.368-11.6-21.024-85.616-72.292C224.863,11.588,206.478-.772,181.179.037,169.983.4,162.005,3.031,151.72,6.52Z" transform="translate(0 0)" fill="#cb0000"/>
    </g>
    <g id="forme_4" transform="translate(674.374 1196.636)" opacity="0.739">
      <circle id="Forme_2" data-name="Forme 2" cx="115.453" cy="115.453" r="115.453" fill="#ffce00"/>
    </g>
    <g id="forme_3" transform="translate(1758.709 1970.859) rotate(180)">
      <g id="FORME" transform="translate(1067.609 884.184) rotate(-180)">
        <path id="Tracé_20" data-name="Tracé 20" d="M356.709,109.708c20.651,48.726,46.025,75.185,101.81,88.135,42.792,9.932,76.014-2.576,104.933-34.232C618.916,102.893,656.6-3.914,761.676.111c63.126,2.419,98.314,29.54,115.009,85.8,18,60.672,33.222,136.076,3.227,196.434-17.472,35.162-54.538,62.275-52.426,104.6,2.325,46.561,46.361,48.677,79.278,70.1,53.733,34.962,101.5,99.9,129.2,153.71,29.361,57.035,41.024,101.274,23.2,162.336-21.763,74.529-83.633,93.655-164.314,107.877-86.3,15.212-194.412-25.586-259.086-78.6-22.013-18.045-33.792-45.194-60.422-55.617a135.511,135.511,0,0,0-68.09-7.6c-65.329,9.807-129.476,21.707-195.473,28-76.154,7.263-181.511,2.61-248.907-38.274C3.091,692.6-5.1,604.786,2.271,545.631c4.614-36.991,9.3-94.542,31.744-125.568,17.463-24.14,54.111-37.3,76.52-58.915,35.167-33.921,45.837-77.276,46.9-122.9,1.789-76.831,48.323-199.866,154.988-158.2,18.767,7.331,29.007,15.5,41.789,29.66Z" transform="translate(0 0)" fill="#ff9a36"/>
      </g>
    </g>
    <g id="forme_2-2" data-name="forme_2" transform="translate(1187.578 450.92)">
      <path id="Forme_1" data-name="Forme 1" d="M161.947,64.126C194.782,80.563,300.338,27.577,374.813,20.3c78.353-7.662,167.727,30.836,214.819,103.344,28.694,44.177,109.489,39.478,139.838,82.953,45.768,83.309,46.594,83.01,63.246,146.7,8.453,32.351-3.761,72.419-22.646,91.618-26.181,26.627-52.778-1.036-87.746,18.107-48.782,26.7-29.445,98.255-80.632,151.441-56.81,59.033-144.475,37.206-156.02,34.333-51.5-12.829-48.692-37.607-107.473-57.63-61.8-21.047-70.741,4.343-154.519-14.288-82.611-18.364-111.324-51.383-120.7-63.22-8.254-10.423-25.72-32.985-34.245-68.187C11.921,376.029,53.77,355.906,49.973,270.446c-2.54-57.34-23.415-105.738-12.946-160.284C39.368,97.957,43.373,88.291,48.662,80.6,65.585,56,93.484,52.8,102.8,51.776a88.157,88.157,0,0,1,21.39.4A110.709,110.709,0,0,1,161.947,64.126Z" transform="translate(-24.734 -19.344)" fill="#49b7b3"/>
    </g>
    <g id="forme_1-2" data-name="forme_1" transform="translate(367.97 319.727)">
      <rect id="Rectangle_14" data-name="Rectangle 14" width="227" height="201.428" rx="4.821" fill="#002f88"/>
    </g>
  </g>
</svg>
