<svg xmlns="http://www.w3.org/2000/svg" xmlns:xlink="http://www.w3.org/1999/xlink" width="1920" height="4760.071" viewBox="0 0 1920 4760.071">
  <defs>
    <clipPath id="clip-path">
      <rect id="Rectangle_15" data-name="Rectangle 15" width="190.107" height="253.505" fill="none"/>
    </clipPath>
  </defs>
  <g id="FORMES_TRANS." data-name="FORMES + TRANS." transform="translate(-276.848 -319.727)">
    <g id="Transition_container" data-name="Transition container" transform="translate(276.848 4003.924)" fill="#aa4200">
      <path d="M 1919.5 199.5 L 0.5 199.5 L 0.5 180.9047546386719 L 0.5 0.5 L 1919.5 0.5 L 1919.5 199.5 Z" stroke="none"/>
      <path d="M 1 1 L 1 199 L 1919 199 L 1919 1 L 1 1 M 0 0 L 1920 0 L 1920 200 L 0 200 L 0 0 Z" stroke="none" fill="#707070"/>
    </g>
    <g id="forme_11" transform="translate(2136.31 5079.798) rotate(180)">
      <path id="Tracé_23" data-name="Tracé 23" d="M705.88,99.756c-50.357-4.886-99.639-11.027-150.019-15.474-76.3-6.737-151.24-12.265-221.446,12.319-26.708,9.354-46.992,24.072-75.544,31.423-41.45,10.675-90.156,10.759-133.716,15.492-54.264,5.891-161.187,9.826-112.99,62.181,16,17.383,81.662,27.579,109.264,24.711,27.732-2.878,48.214-18.174,73.531-25.633,64-18.853,137.651-13.365,204.521-6.842,139.625,13.619,267.081,38.871,412.57,34.283,71.382-2.254,121.105-33.619,193.086-32.78,93.628,1.093,180.6,36.348,141.881,101.988-18.322,31.06-41.564,27.6-87.849,27.582-34.138-.014-76.03-3.949-108.15,5.2C906.04,347.009,900,381.016,893.08,409.259c-7.81,31.891-11.338,59.93-15.755,91.89-3.314,23.934-32.538,48.362,7.165,64.3,46.252,18.562,124.1,18.675,176.331,21.448,64.647,3.434,131.629,6.065,196.332,2.272,18.039-1.056,43.56-6.6,61.8-2.9,32.368,6.577,33.657,17.1,75.142,16.127,57.437-1.35,202-17.111,214.236-66.177,4.891-19.608-31.164-41.905-60.038-46.7-45.726-7.6-65.212,12.523-69.091-30.929-2.284-25.6,6.09-61.03,13.6-86.249,18.927-63.553,169.986-.247,229.979-6.955,32.9-3.677,58.918-28.366,53.739-48.555-4.863-18.969-34.834-27.807-15.59-43.673,25.5-21.031,65.156-18.12,86.865-46.2,20.771-26.867,14.765-44.206-25.763-62.439-51.895-23.343-128.434-30.624-188.9-35.491-64.329-5.176-127.133-13.582-192.1-13.909-44.21-.218-124.78,6.381-165.157-9.165-30.412-11.713-53.337-45.292-81.8-61.967-29.253-17.14-76.629-47.978-122.92-43.557-40.54,3.869-68.023,28.773-108,32.511-71.676,6.7-147.582-16.446-219.4-12.526-46.913,2.559-26.25,19.985-1.368,32.642C768.231,66.214,742.693,103.328,705.88,99.756Z" transform="translate(0 0)" fill="#5cb268"/>
    </g>
    <g id="forme_10" transform="translate(1113.07 3704.625)">
      <path id="Tracé_18" data-name="Tracé 18" d="M659.136,209.814c62.624,24.9,114.8,36.328,151.218,42.155,48.63,7.781,74.69,5.591,104.263,26.262,29.092,20.332,49,53.07,67.027,100.263,40.16,105.1,158.117,125.775,186.362,245.832,27.329,116.177-112.671,95.246-146.888,182.8-15.586,39.883-15.55,83.955-15.5,126.343.076,67.082-18.69,124.926-55.848,180.563-72.1,107.954-203.823,77.1-261.453-31.466-28.5-53.683-41.049-90.76-101.57-112.885-31.673-11.576-52.394-17.728-81.845-6.07-51.032,20.2-79.383,16.6-138.731,10.234-91.126-9.762-183.287-16.814-210.3-126.87-14.8-60.314-8.889-157.3,12.686-215.036,13.065-34.963,29.58-29.933,55.221-52.208C269.063,540.395,285.5,467.393,283.1,409.857c-2.993-71.729-6.842-181.75,56.774-232.47,29.359-23.411,84.409-24.431,119.025-30.809,35.493-6.539,55.142-1.707,62.314-.667,39.915,5.772,69.894,22.788,87.636,35.007Z" transform="translate(-147.692 -143.217)" fill="#fff"/>
      <path id="Tracé_17" data-name="Tracé 17" d="M309.243,281.857c31.353-41.546,84.9-58.983,132.933-43.887,56.831,17.865,81.138,76.109,83,120.587,4.233,101.06-157.925,123.694-207.427,55.041-12.267-17.013-32.4-40.578-31.534-72.732C287.043,310.435,303.094,289.217,309.243,281.857Z" transform="translate(165.215 73.259)" fill="#f2cd00"/>
    </g>
    <g id="forme_9" transform="translate(1516.02 3207.04)">
      <path id="Tracé_22" data-name="Tracé 22" d="M352.539,84.5c-6.934-8.964-13.629-18.534-20.411-28.066-4.441-6.24-11.3-22.253-17.535-25.289-6.681-3.25-10.6,1.423-17.767,3.031-17.375,3.9-32.3,12.884-49,17.97-14.913,4.542-30.3,3.34-45.895,3.394-30.125.1-62.722,7.642-86.207,27.217C93.436,101.335,95.85,148.568,95.276,174.8l20.443,10.221c-20.427-4.833-51.153-16.8-59.662,4.782-10.483,26.576,7.188,75.4,18.726,99.3,9.714,20.13,21.588,33.989,39.673,46.282,17.511,11.9,48.068,22.694,57.091,43.39,15.455,35.457-56.026,89.283-8.173,114.494,22.966,12.1,56.549,14.379,81.849,17.161,36.114,3.968,74.372,11.319,110.366,13.289,24.48,1.338,12.846-14.956,20.8-33.73l-54.52-10.221c54.186,13.647,117.2,20.486,172.822,23.634,18.7,1.057,40.352,2.849,58.212-4.291,22.2-8.876,45.446-29.925,42.95-53.924-2.481-23.845-16.064-57.128-29.479-78.009-10.16-15.815-29.716-21.778-38.229-37.089-8.39-15.1-5.276-43.406-5.234-59.516.045-17.636,3.845-57.39-13.642-70.428-9.639-7.191-30.718-3.2-42.581-3.2l1.7,28.963c.019-37.7-7.89-99.993-46.186-118.444-24.742-11.92-73.833-17.685-102.041-16.147C293,92.8,266.891,100.766,240.093,104.945" transform="translate(-52.858 -30.023)" fill="#ef838e"/>
    </g>
    <g id="forme_8" transform="translate(516.97 3553.666)">
      <path id="Tracé_24" data-name="Tracé 24" d="M85.7,361.018c-14.989,1.3-10.591-9.182-14.593-18.669-4.139-9.814-13.525-10.649-15.314-20.542-3.214-17.756,10.028-43.563,22.984-54.072,22.057-17.893,56.8-24.215,84.034-16.092,12.018,3.585,19.357,7.159,32.344,7.23,16.6.093,35.617-6.368,51.672-3.358,22.345,4.19,35.181,23.19,39.178,43.157l-27.858-1.328c22.81,6.663,56.281,1.516,79.427-3.984,14.991-3.562,35.679-9.759,49.173,1.536,16.98,14.213,10.428,48,29.183,59.848,9.386,5.93,25.867,5.465,36.129,5.974,13.344.66,43.642-5.886,55.243,1.754,15.552,10.238,5.974,30.539-6.011,37.014-18.628,10.065-29.645-4.014-47.855,1.37-18.18,5.374-51.778,43.366-52.04,62.661-.153,11.267,9.063,21.265,13.636,31.281,4.215,9.233,8.058,18.4,11.582,27.828,6.229,16.674,9.284,35.241-1.314,50.638-19.9,28.914-46.854,1.682-72.971,13.265l-6.632-19.9c4.776,11.761,6.167,21.137,4.095,33.765-2.447,14.9-11,16.234-24.725,22.98-23.911,11.752-59.335,15.249-86.19,16.572-26.057,1.286-52.657-5.921-78.582-9.675-15.4-2.229-39.772,1.138-44.087-14.06-6.123-21.582,11.423-30.736,27.955-33.663,23.851-4.222,28.335-14.046,26.541-36.761-2.185-27.682-5.342-66.83-20.076-91.388-14.333-23.888-25.941-21.744-49.554-27.209-19.772-4.575-27.668-15.508-24.764-35.6,5.756-39.825,35.385-51.118,73.059-49.15" transform="translate(-55.304 -248.15)" fill="#a4348a"/>
    </g>
    <g id="forme_7" transform="translate(854.919 2426.091)">
      <path id="Tracé_16" data-name="Tracé 16" d="M748.2,482.993c8.516-1.633,22.743-4.244,40.436-6.88,62.443-9.3,89.486-7.251,133.893-20.85,39.346-12.052,48.426-23.052,52.935-30.909,6.617-11.5,7.131-26.789,2.708-49.2-8.051-40.759-20.047-108.74-58.841-132.868-27.2-16.9-75.371-1.559-105.453,1.448v42.64c3.321-41.13-7.536-113.565-50.3-127.907-40.436-13.562-104.178-17.41-146.808-12.436-46,5.383-74.452,43.122-96.116,29.016-6.47-4.219-13.283-12.98-11.947-21.1,3.75-22.854,9.288-40.946,0-69.826C501.7,62.362,459,35.933,431.153,47.144c-39.738,15.987-75.359,40.1-108.859,66.385-15.28,11.978-84.414,51.4-92.832,66.1-18.208,31.738-20.549,96.861,23.71,125.84,36.589,23.955,79.856,6.558,84.5,4.6C314.819,369.9,288.339,431.581,301.3,498.448c5.71,29.449,27.325,102.7,54.9,112.613,21.468,7.709,35.988-13.166,70.788-10.6,27.692,2.029,49.455,16.358,63.73,28.447,44.075,37.307,84.99,51.747,110.489,58.07,111.91,27.779,180.383-23.6,283.213-68.191,33.771-14.638,36.687-19.8,28.085-53.1-5.71-22.075-17.2-52.712-25.9-101.637" transform="translate(-217.185 -44.478)" fill="#00a5fc" opacity="0.995"/>
    </g>
    <g id="forme_6" transform="matrix(0.966, 0.259, -0.259, 0.966, 2013.219, 2391.428)">
      <g id="Groupe_1" data-name="Groupe 1" transform="translate(0 0)" clip-path="url(#clip-path)">
        <path id="Tracé_27" data-name="Tracé 27" d="M190.109,221.773c-11.692-68.521-31.545-144.483-56.3-210.115L130.3,4.585C33.392-22.747-6.988,77.873.98,154.092c7.313,69.926,126.111,134.938,185.982,77.124" transform="translate(-0.002 -0.001)" fill="#87bc22"/>
      </g>
    </g>
    <g id="forme_4" transform="translate(696.515 1395.636)" opacity="0.739">
      <circle id="Forme_2" data-name="Forme 2" cx="115.453" cy="115.453" r="115.453" fill="#ffce00"/>
    </g>
    <g id="forme_3" transform="translate(1804.652 2186.997) rotate(180)">
      <g id="FORME" transform="translate(1067.609 884.184) rotate(-180)">
        <path id="Tracé_20" data-name="Tracé 20" d="M356.709,109.708c20.651,48.726,46.025,75.185,101.81,88.135,42.792,9.932,76.014-2.576,104.933-34.232C618.916,102.893,656.6-3.914,761.676.111c63.126,2.419,98.314,29.54,115.009,85.8,18,60.672,33.222,136.076,3.227,196.434-17.472,35.162-54.538,62.275-52.426,104.6,2.325,46.561,46.361,48.677,79.278,70.1,53.733,34.962,101.5,99.9,129.2,153.71,29.361,57.035,41.024,101.274,23.2,162.336-21.763,74.529-83.633,93.655-164.314,107.877-86.3,15.212-194.412-25.586-259.086-78.6-22.013-18.045-33.792-45.194-60.422-55.617a135.511,135.511,0,0,0-68.09-7.6c-65.329,9.807-129.476,21.707-195.473,28-76.154,7.263-181.511,2.61-248.907-38.274C3.091,692.6-5.1,604.786,2.271,545.631c4.614-36.991,9.3-94.542,31.744-125.568,17.463-24.14,54.111-37.3,76.52-58.915,35.167-33.921,45.837-77.276,46.9-122.9,1.789-76.831,48.323-199.866,154.988-158.2,18.767,7.331,29.007,15.5,41.789,29.66Z" fill="#ff9a36"/>
      </g>
    </g>
    <g id="forme_2-2" data-name="forme_2" transform="translate(1270.848 450.92)">
      <path id="Forme_1" data-name="Forme 1" d="M161.947,64.126C194.782,80.563,300.338,27.577,374.813,20.3c78.353-7.662,167.727,30.836,214.819,103.344,28.694,44.177,109.489,39.478,139.838,82.953,45.768,83.309,46.594,83.01,63.246,146.7,8.453,32.351-3.761,72.419-22.646,91.618-26.181,26.627-52.778-1.036-87.746,18.107-48.782,26.7-29.445,98.255-80.632,151.441-56.81,59.033-144.475,37.206-156.02,34.333-51.5-12.829-48.692-37.607-107.473-57.63-61.8-21.047-70.741,4.343-154.519-14.288-82.611-18.364-111.324-51.383-120.7-63.22-8.254-10.423-25.72-32.985-34.245-68.187C11.921,376.029,53.77,355.906,49.973,270.446c-2.54-57.34-23.415-105.738-12.946-160.284C39.368,97.957,43.373,88.291,48.662,80.6,65.585,56,93.484,52.8,102.8,51.776a88.157,88.157,0,0,1,21.39.4A110.709,110.709,0,0,1,161.947,64.126Z" transform="translate(-24.734 -19.344)" fill="#49b7b3"/>
    </g>
    <g id="forme_1-2" data-name="forme_1" transform="translate(367.97 319.727)">
      <rect id="Rectangle_14" data-name="Rectangle 14" width="227" height="201.428" rx="4.821" fill="#002f88"/>
    </g>
    <g id="Transition_container-2" data-name="Transition container" transform="translate(276.848 2263.768)" fill="#aa4200">
      <path d="M 1919.5 199.5 L 0.5 199.5 L 0.5 180.9047546386719 L 0.5 0.5 L 1919.5 0.5 L 1919.5 199.5 Z" stroke="none"/>
      <path d="M 1 1 L 1 199 L 1919 199 L 1919 1 L 1 1 M 0 0 L 1920 0 L 1920 200 L 0 200 L 0 0 Z" stroke="none" fill="#707070"/>
    </g>
  </g>
</svg>
